<svg xmlns="http://www.w3.org/2000/svg" width="1200" height="1200" viewBox="0 0 1200 1200"><style>.style0{fill: #ffffff;}</style><path d="M600.228 600.958l-.66-.514c-.202-.166-.477-.386-.477-.79 0-.405.276-.663.514-.9.77-.607 1.538-1.25 1.538-2.612 0-1.256-.632-1.862-.94-2.24h.9L602 593h-3.622c-.99 0-2.235.147-3.278 1.01-.787.68-1.172 1.618-1.172 2.463 0 1.433 1.098 2.885 3.04 2.885.183 0 .384-.018.586-.036-.09.22-.183.405-.183.717 0 .568.05.808.306 1.14-.824.055-2.12.12-3.253.818-1.082.644-1.41 1.717-1.41 2.38 0 1.36 1.28 2.628 3.937 2.628 3.15 0 4.816-1.747 4.816-3.474 0-1.268-.732-1.893-1.538-2.574zm-4.69-5.384c0-.48.092-.975.403-1.36.294-.37.807-.608 1.284-.608 1.52 0 2.306 2.06 2.306 3.383 0 .33-.037.917-.457 1.34-.294.295-.787.515-1.245.515-1.574 0-2.29-2.04-2.29-3.27zm2.31 10.66c-1.96 0-3.225-.937-3.225-2.243 0-1.304 1.063-1.69 1.466-1.837.77-.257 1.787-.35 1.787-.35s.456.028.665.02c1.115.546 1.997 1.488 1.997 2.428 0 1.138-.936 1.985-2.693 1.985zM607 598.992h-2.01v-1.99h-1v1.99H602v1h1.99V602h1v-2.008H607" class="style0"/></svg>