<svg id="Symbol" xmlns="http://www.w3.org/2000/svg" width="600" height="600" viewBox="0 0 600 600"><path fill="#E5637C" d="M0 0h600v600H0z"/><path id="S" fill="#FFF" d="M212.25 389.338c0-3.246 2.028-8.127 6.1-14.637 4.064-6.503 7.724-9.757 10.98-9.757.318 0 2.927 1.547 7.805 4.635 4.88 3.096 11.872 6.182 20.982 9.27 9.103 3.097 20.082 4.636 32.936 4.636 12.846 0 23.42-3.66 31.716-10.98 8.294-7.32 12.44-17.237 12.44-29.763 0-12.517-3.66-22.276-10.98-29.274-7.317-6.992-21.88-13.58-43.67-19.762-21.795-6.176-37.57-14.065-47.327-23.664-9.76-9.592-14.638-24.153-14.638-43.67 0-19.518 7.48-35.864 22.444-49.038 14.957-13.174 34.475-19.76 58.55-19.76 16.592 0 31.39 2.118 44.403 6.342 13.007 4.23 19.517 8.95 19.517 14.15 0 4.232-1.875 9.683-5.61 16.346-3.744 6.67-7.075 10.003-10.004 10.003-.328 0-2.438-.976-6.34-2.928-11.064-5.856-23.507-8.784-37.33-8.784-13.83 0-24.564 2.853-32.202 8.54-7.647 5.695-11.467 13.1-11.467 22.2 0 9.112 2.844 16.27 8.54 21.47 5.687 5.208 15.37 9.928 29.032 14.15 30.57 9.438 51.308 19.762 62.21 30.985 10.895 11.222 16.347 28.14 16.347 50.745 0 22.613-8.052 41.23-24.154 55.867-16.102 14.64-35.374 21.957-57.82 21.957-22.444 0-41.802-3.33-58.063-10.002-16.272-6.663-24.4-13.09-24.4-19.274z"/></svg>