<svg id="Symbol" xmlns="http://www.w3.org/2000/svg" width="600" height="600" viewBox="0 0 600 600"><g id="Layers"><path fill="#512833" d="M150.066 61.178l397.72 80.47-80.47 397.73L69.593 458.91z"/><path fill="#934358" d="M99.736 78.737l403.894 39.2-39.2 403.897-403.894-39.2z"/><path fill="#E5637C" d="M53.352 97.4h405.802v405.802H53.352z"/></g><path id="S_1_" fill="#FFF" d="M193.32 376.016c0-2.4 1.498-6.008 4.507-10.82 3.003-4.807 5.71-7.212 8.115-7.212.236 0 2.164 1.144 5.77 3.427 3.607 2.288 8.775 4.57 15.51 6.853 6.728 2.288 14.843 3.427 24.344 3.427 9.496 0 17.312-2.706 23.443-8.115 6.13-5.41 9.197-12.74 9.197-22 0-9.254-2.706-16.467-8.116-21.64-5.41-5.168-16.173-10.037-32.28-14.607-16.11-4.564-27.77-10.396-34.983-17.492-7.212-7.09-10.82-17.854-10.82-32.28 0-14.426 5.528-26.508 16.59-36.246 11.056-9.738 25.484-14.607 43.28-14.607 12.262 0 23.2 1.565 32.82 4.688 9.615 3.13 14.426 6.618 14.426 10.46 0 3.128-1.386 7.158-4.146 12.083-2.768 4.93-5.23 7.394-7.394 7.394-.243 0-1.804-.722-4.688-2.165-8.178-4.33-17.375-6.492-27.59-6.492-10.224 0-18.158 2.108-23.805 6.312-5.653 4.21-8.476 9.68-8.476 16.41 0 6.734 2.102 12.025 6.312 15.87 4.204 3.85 11.36 7.337 21.46 10.458 22.596 6.977 37.925 14.606 45.983 22.902 8.053 8.296 12.082 20.8 12.082 37.51 0 16.715-5.95 30.475-17.854 41.296-11.902 10.82-26.148 16.23-42.738 16.23s-30.9-2.464-42.92-7.395c-12.023-4.925-18.03-9.677-18.03-14.247z"/></svg>