<svg xmlns="http://www.w3.org/2000/svg" xmlns:xlink="http://www.w3.org/1999/xlink" width="1400" height="600" viewBox="0 0 1400 600"><g id="Symbol"><path fill="#512833" d="M493.805 502.897l-350.028-63.854 63.853-350.04 350.03 63.854-63.855 350.04z"/><path fill="#934358" d="M488.145 491.09L134 456.71l34.385-354.146 354.14 34.384-34.38 354.145z"/><path fill="#E5637C" d="M482.65 474.73H126.837V118.92h355.81v355.81z"/><path fill="#FFF" d="M252.564 365.283c0-2.06 1.286-5.157 3.87-9.29 2.58-4.127 4.903-6.192 6.968-6.192.202 0 1.858.983 4.953 2.94 3.1 1.968 7.536 3.926 13.318 5.888 5.777 1.965 12.745 2.94 20.903 2.94 8.153 0 14.865-2.322 20.13-6.966 5.265-4.647 7.896-10.943 7.896-18.892 0-7.944-2.323-14.138-6.97-18.58-4.644-4.438-13.885-8.62-27.715-12.542-13.833-3.92-23.844-8.928-30.038-15.02-6.194-6.087-9.292-15.33-9.292-27.716 0-12.386 4.748-22.76 14.246-31.123 9.493-8.362 21.88-12.543 37.16-12.543 10.53 0 19.92 1.344 28.18 4.026 8.257 2.687 12.388 5.68 12.388 8.98 0 2.686-1.19 6.145-3.56 10.375-2.377 4.234-4.492 6.35-6.35 6.35-.208 0-1.547-.62-4.025-1.86-7.02-3.716-14.918-5.575-23.69-5.575-8.777 0-15.59 1.81-20.44 5.42-4.852 3.613-7.276 8.313-7.276 14.09 0 5.78 1.807 10.325 5.42 13.626 3.61 3.304 9.755 6.298 18.427 8.978 19.403 5.99 32.564 12.542 39.483 19.666 6.916 7.122 10.375 17.858 10.375 32.207 0 14.353-5.11 26.167-15.33 35.457-10.22 9.292-22.45 13.936-36.695 13.936-14.246 0-26.532-2.114-36.852-6.348-10.328-4.227-15.484-8.304-15.484-12.232z"/></g><g id="Word"><defs><path id="SVGID_1_" d="M612.006 166.1h608.767v205.178H612.006z"/></defs><clipPath id="SVGID_2_"><use xlink:href="#SVGID_1_" overflow="visible"/></clipPath><path clip-path="url(#SVGID_2_)" fill="#252525" d="M611.89 355.244c0-1.78 1.112-4.452 3.34-8.017 2.227-3.562 4.232-5.345 6.014-5.345.175 0 1.604.846 4.276 2.537 2.672 1.696 6.5 3.387 11.49 5.076 4.986 1.696 11 2.54 18.04 2.54 7.036 0 12.827-2.005 17.37-6.012 4.543-4.01 6.815-9.443 6.815-16.303 0-6.855-2.004-12.2-6.013-16.033-4.01-3.83-11.985-7.438-23.92-10.824-11.937-3.382-20.576-7.703-25.92-12.962-5.345-5.25-8.018-13.226-8.018-23.915 0-10.69 4.097-19.642 12.292-26.858 8.193-7.216 18.883-10.823 32.07-10.823 9.085 0 17.19 1.16 24.318 3.475 7.124 2.316 10.69 4.9 10.69 7.75 0 2.317-1.028 5.302-3.074 8.952-2.05 3.654-3.875 5.48-5.48 5.48-.18 0-1.335-.535-3.472-1.605-6.06-3.207-12.874-4.81-20.445-4.81-7.574 0-13.454 1.56-17.638 4.677-4.188 3.118-6.28 7.173-6.28 12.16 0 4.988 1.558 8.908 4.676 11.757 3.116 2.853 8.42 5.438 15.902 7.75 16.745 5.17 28.103 10.826 34.074 16.97 5.967 6.147 8.952 15.413 8.952 27.795 0 12.384-4.41 22.58-13.23 30.6-8.817 8.016-19.374 12.023-31.667 12.023-12.292 0-22.895-1.823-31.8-5.48-8.907-3.65-13.36-7.168-13.36-10.554z"/><path fill="#252525" d="M728.14 334.4V174.59c0-3.918 3.563-5.88 10.69-5.88h1.07c7.122 0 10.687 1.96 10.687 5.88v157.67c0 13.186 4.81 19.777 14.432 19.777 3.025 0 5.61-.224 7.748-.67 2.14-.44 3.384-.668 3.743-.668 1.604 0 2.94 1.648 4.01 4.944 1.067 3.298 1.603 5.837 1.603 7.615 0 5.345-6.506 8.016-19.51 8.016-8.91 0-16.882-2.713-23.917-8.15-7.04-5.432-10.555-15.005-10.555-28.727zM803.234 365.29V233.33c0-3.915 3.562-5.877 10.69-5.877h1.068c7.123 0 10.688 1.962 10.688 5.878v131.96c0 3.922-3.565 5.88-10.688 5.88h-1.07c-7.126 0-10.688-1.958-10.688-5.88zM880.467 297.786c0 35.992 11.578 53.985 34.74 53.985 11.578 0 22.983-6.146 34.206-18.438v-73.225c-9.62-8.017-20.4-12.025-32.334-12.025h-1.605c-11.403.18-20.09 4.542-26.057 13.094-5.97 8.55-8.95 20.755-8.95 36.61zm70.817 53.45c-12.826 13.36-27.08 20.04-42.757 20.04-15.68 0-28.194-6.588-37.548-19.775-9.355-13.18-14.032-30.103-14.032-50.774v-2.403c0-21.915 4.987-39.06 14.966-51.444 9.977-12.382 22.448-18.575 37.414-18.575 14.965 0 28.328 4.543 40.085 13.63V174.59c0-3.917 3.563-5.88 10.69-5.88h1.07c7.123 0 10.69 1.962 10.69 5.88v155.533c0 10.69.44 18.44 1.336 23.25 1.242 6.595 1.87 10.07 1.87 10.424 0 2.14-1.698 3.7-5.08 4.677-3.387.98-6.014 1.47-7.883 1.47-1.87 0-3.165-.18-3.874-.535-.716-.355-1.384-.978-2.006-1.87-.626-.89-1.114-1.74-1.47-2.54-.358-.8-.713-1.913-1.07-3.34-.357-1.426-.666-2.54-.934-3.34-.27-.804-.534-2.048-.8-3.742-.267-1.694-.492-2.807-.67-3.343zM1092.234 289.77c0-28.147-10.688-42.224-32.068-42.224-22.983 0-35.455 14.076-37.414 42.224h69.482zm-77.5 64.136c-10.69-11.578-16.034-29.262-16.034-53.046 0-23.785 5.252-41.823 15.77-54.116 10.507-12.293 25.473-18.44 44.895-18.44 37.767 0 56.654 23.25 56.654 69.75 0 1.605-1.07 3.834-3.208 6.682-2.138 2.85-4.008 4.275-5.612 4.275h-84.448c1.07 14.792 4.897 25.657 11.49 32.604 6.59 6.95 16.48 10.425 29.664 10.425 12.115 0 23.25-2.85 33.407-8.554 3.38-1.78 5.252-2.673 5.61-2.673 1.778 0 3.782 1.783 6.013 5.346 2.228 3.565 3.34 6.237 3.34 8.016 0 3.566-4.855 7.308-14.56 11.225-9.717 3.922-20.894 5.88-33.54 5.88-22.276-.003-38.752-5.79-49.44-17.374zM1130.713 355.244c0-1.78 1.11-4.452 3.34-8.017 2.227-3.562 4.23-5.345 6.014-5.345.176 0 1.604.846 4.277 2.537 2.672 1.696 6.5 3.387 11.49 5.076 4.985 1.696 11 2.54 18.038 2.54 7.036 0 12.828-2.005 17.37-6.012 4.544-4.01 6.816-9.443 6.816-16.303 0-6.855-2.005-12.2-6.013-16.033-4.01-3.83-11.985-7.438-23.92-10.824-11.937-3.382-20.576-7.703-25.922-12.962-5.344-5.25-8.017-13.226-8.017-23.915 0-10.69 4.096-19.642 12.292-26.858 8.194-7.216 18.884-10.823 32.07-10.823 9.085 0 17.19 1.16 24.32 3.475 7.122 2.316 10.687 4.9 10.687 7.75 0 2.317-1.026 5.302-3.072 8.952-2.05 3.654-3.874 5.48-5.48 5.48-.18 0-1.335-.535-3.472-1.605-6.06-3.207-12.875-4.81-20.444-4.81-7.574 0-13.452 1.56-17.64 4.677-4.186 3.118-6.278 7.173-6.278 12.16 0 4.988 1.557 8.908 4.678 11.757 3.115 2.853 8.416 5.438 15.9 7.75 16.744 5.17 28.103 10.826 34.074 16.97 5.967 6.147 8.95 15.413 8.95 27.795 0 12.384-4.41 22.58-13.228 30.6-8.818 8.016-19.375 12.023-31.667 12.023-12.294 0-22.895-1.823-31.804-5.48-8.907-3.65-13.357-7.168-13.357-10.554zM829.64 181.28c0 8.385-6.796 15.182-15.18 15.182s-15.183-6.797-15.183-15.182c0-8.385 6.797-15.182 15.182-15.182s15.18 6.797 15.18 15.182z"/></g></svg>